<svg width="24" height="24" viewBox="0 0 24 24" fill="none" xmlns="http://www.w3.org/2000/svg">
<path d="M23.9917 19.9222C24.0827 19.6763 13.6363 11.7885 13.6363 11.7885C12.3285 10.8234 11.6406 10.8082 10.3473 11.7885C10.3473 11.7885 -0.0838564 19.67 0.00394043 19.9125L0.00183105 19.9142C0.00290918 19.9163 0.00464355 19.9178 0.00609668 19.9197C0.0945468 20.1608 0.223229 20.3852 0.386675 20.5833C0.455722 20.667 0.538925 20.7372 0.61894 20.8101L0.61505 20.8131C0.621425 20.8187 0.629909 20.8214 0.636284 20.827C0.975425 21.1296 1.40311 21.3255 1.87824 21.3814C1.88569 21.3823 1.89169 21.3862 1.89914 21.3871H1.92783C2.00007 21.394 2.06874 21.4113 2.14271 21.4113H21.864C22.8351 21.4113 23.6579 20.8006 23.9847 19.9446C23.9886 19.9382 23.9946 19.9336 23.9981 19.927L23.9917 19.9222Z" fill="#96A9B2"/>
<path d="M12.0062 10.8833L0.0570068 19.8452V7.14918C0.0570068 5.91168 1.05999 4.90869 2.29749 4.90869H21.715C22.9525 4.90869 23.9555 5.91168 23.9555 7.14918V19.8452L12.0062 10.8833Z" fill="#B9C5C6"/>
<path d="M0.196411 6.37013L10.3985 14.3834C11.6862 15.3336 12.3634 15.3486 13.6368 14.3834L23.8229 6.38284C23.6461 6.06249 23.3816 5.80941 23.079 5.60762L23.2191 5.49784C22.8772 5.18654 22.4401 4.98474 21.9548 4.93262L2.05852 4.93332C1.57468 4.98474 1.13686 5.18724 0.795614 5.49784L0.934692 5.60626C0.63563 5.80524 0.373505 6.05396 0.196411 6.37013Z" fill="#EDECE6"/>
<path d="M0.193049 6.38686C0.103471 6.62897 10.3889 14.3952 10.3889 14.3952C11.6766 15.3454 12.3538 15.3604 13.6272 14.3952C13.6272 14.3952 23.8976 6.63525 23.8112 6.39647L23.8133 6.39473C23.8122 6.39262 23.8105 6.39126 23.8091 6.38934C23.722 6.15193 23.5953 5.93101 23.4344 5.73595C23.3664 5.6535 23.2845 5.5845 23.2057 5.51269L23.2096 5.50973C23.2033 5.50415 23.1949 5.50153 23.1887 5.49595C22.8547 5.19811 22.4336 5.00517 21.9659 4.95009C21.9586 4.9492 21.9526 4.9454 21.9453 4.94451H21.9171C21.846 4.93772 21.7783 4.92065 21.7055 4.92065H2.28799C1.33183 4.92065 0.521736 5.52197 0.200033 6.36483C0.196189 6.37111 0.190283 6.37565 0.186768 6.38208L0.193049 6.38686Z" fill="#DCE2E2"/>
<path d="M13.6594 7.24905H11.8485C11.772 7.24905 11.6986 7.27944 11.6445 7.33355C11.5904 7.38766 11.56 7.46104 11.56 7.53756V8.55578C11.56 8.6323 11.5904 8.70568 11.6445 8.75979C11.6986 8.8139 11.772 8.8443 11.8485 8.8443H13.3211C13.3976 8.8443 13.471 8.87469 13.5251 8.9288C13.5792 8.98291 13.6096 9.05629 13.6096 9.13281V9.67731C13.6096 9.75383 13.5792 9.82721 13.5251 9.88132C13.471 9.93543 13.3976 9.96583 13.3211 9.96583H11.8485C11.772 9.96583 11.6986 9.99622 11.6445 10.0503C11.5904 10.1044 11.56 10.1778 11.56 10.2543V11.3596C11.56 11.4361 11.5904 11.5095 11.6445 11.5636C11.6986 11.6177 11.772 11.6481 11.8485 11.6481H13.7852C13.8617 11.6481 13.9351 11.6785 13.9892 11.7326C14.0433 11.7867 14.0737 11.8601 14.0737 11.9366V12.5198C14.0737 12.5963 14.0433 12.6697 13.9892 12.7238C13.9351 12.7779 13.8617 12.8083 13.7852 12.8083H10.234C10.1574 12.8083 10.084 12.7779 10.0299 12.7238C9.97583 12.6697 9.94543 12.5963 9.94543 12.5198V6.39667C9.94543 6.32015 9.97583 6.24677 10.0299 6.19266C10.084 6.13855 10.1574 6.10815 10.234 6.10815H13.7407C13.9164 6.10815 14.0513 6.26387 14.0262 6.43783L13.945 7.00164C13.9351 7.07033 13.9008 7.13315 13.8483 7.17859C13.7959 7.22403 13.7288 7.24904 13.6594 7.24905Z" fill="#597B91"/>
</svg>
